<svg xmlns="http://www.w3.org/2000/svg" width="109" height="31" fill="none" viewBox="0 0 109 31">
    <g clip-path="url(#prefix__clip0)">
        <path fill="#E62249" d="M22.977 30.921c1.756 0 3.18-1.409 3.18-3.147 0-1.738-1.424-3.147-3.18-3.147-1.757 0-3.18 1.409-3.18 3.147 0 1.738 1.423 3.147 3.18 3.147z"/>
        <path fill="#fff" d="M31.325.079L21.148 20.142 10.972.08h20.353z"/>
        <path fill="#E62249" d="M19.16 24.076L15.662 31 0 .079h6.996L19.16 24.076z"/>
        <path fill="#fff" d="M40.706 11.88L35.856.237h1.272l4.135 10.228L45.397.236h1.272l-4.85 11.645h-1.113zM55.573 11.88l-1.67-3.933h-5.485l-1.75 3.934h-1.192L50.485.236h1.351l5.089 11.645h-1.352zM51.121 1.496l-2.306 5.35h4.532l-2.226-5.35zM66.704 11.88L59.708 1.575v10.228h-1.193V.236h1.59l6.599 9.678V.236h1.192v11.645h-1.192zM72.19 11.88V1.26h-2.704V.236h6.6v1.023h-2.704V11.88h-1.193zM85.546 11.88l-1.67-3.933h-5.485l-1.75 3.934H75.45L80.458.236h1.352l5.088 11.645h-1.352zM81.094 1.496l-2.306 5.35h4.532l-2.226-5.35zM92.463 7.553V6.53h7.951c-.239 3.148-2.942 5.587-6.202 5.587s-6.28-2.518-6.28-6.059c0-3.304 2.861-6.058 6.28-6.058 2.624 0 4.85 1.652 5.566 3.305h-1.352c-.795-1.338-2.465-2.282-4.214-2.282-2.782 0-5.168 2.203-5.168 4.957 0 2.832 2.386 4.957 5.168 4.957 2.147 0 4.214-1.417 4.77-3.462h-6.519v.078zM102.56 11.88V.237H109v1.023h-5.247v4.17h5.088v1.023h-5.088v4.327H109v1.023h-6.44v.079zM36.73 30.843V19.119h3.976c1.272 0 2.226.158 2.783.472 1.272.551 2.067 1.889 2.067 3.462 0 2.125-1.193 4.092-4.612 4.092h-1.43v3.619H36.73v.079zm4.214-6.295c1.193 0 1.829-.393 1.829-1.416 0-.944-.556-1.338-1.908-1.338h-1.193v2.754h1.272zM46.987 25.256c0-3.619 2.623-6.294 6.201-6.294 3.419 0 6.201 2.596 6.201 5.98 0 3.462-2.703 6.137-6.042 6.137-3.26-.079-6.36-2.36-6.36-5.823zm9.46-.236c0-1.81-1.35-3.462-3.18-3.462-1.908 0-3.18 1.574-3.18 3.384 0 1.888 1.352 3.462 3.26 3.462 1.75 0 3.1-1.574 3.1-3.384zM61.377 30.843V19.119h3.021v11.645h-3.021v.079zM74.098 30.843l-4.532-7.082.08 7.082h-2.863V19.119h2.624l4.611 7.396-.159-7.396h2.862v11.645h-2.623v.079zM80.617 30.843v-9.049H78.31v-2.596h7.633v2.596h-2.306v9.049h-3.021z"/>
    </g>
    <defs>
        <clipPath id="prefix__clip0">
            <path fill="#fff" d="M0 0H109V31H0z"/>
        </clipPath>
    </defs>
</svg>
